<svg id="_Icons_33_Enable" data-name="_Icons / 33 Enable" xmlns="http://www.w3.org/2000/svg" xmlns:xlink="http://www.w3.org/1999/xlink" width="33.535" height="33.535" viewBox="0 0 33.535 33.535">
  <defs>
    <radialGradient id="radial-gradient" cx="0.5" cy="0.5" r="0.5" gradientUnits="objectBoundingBox">
      <stop offset="0" stop-color="#ff8080"/>
      <stop offset="1" stop-color="#ff5757"/>
    </radialGradient>
  </defs>
  <path id="Path_60" data-name="Path 60" d="M16.767,0A16.767,16.767,0,1,1,0,16.767,16.767,16.767,0,0,1,16.767,0Z" fill="url(#radial-gradient)"/>
  <path id="_33_Enable" data-name="33 Enable" d="M11.026,23.351c-.2,0-.395-.005-.591-.016a11.091,11.091,0,0,1-7.258-3.275A10.864,10.864,0,0,1,4.261,3.755a1.406,1.406,0,0,1,.864-.3H5.14a1.481,1.481,0,0,1,1.037.427,1.451,1.451,0,0,1-.113,2.162,8.041,8.041,0,1,0,12.578,8.936,8,8,0,0,0-2.686-8.936,1.435,1.435,0,0,1,.256-2.419,1.473,1.473,0,0,1,1.534.129A10.906,10.906,0,0,1,17.294,21.4,10.99,10.99,0,0,1,11.026,23.351Zm-.019-9.5A1.464,1.464,0,0,1,9.541,12.4V1.459a1.467,1.467,0,0,1,2.934,0V12.4A1.464,1.464,0,0,1,11.007,13.856Z" transform="translate(5.5 4.5)" fill="#f9f8f7" stroke="#f9f8f7" stroke-width="1"/>
</svg>
