<svg id="Component_283_5" data-name="Component 283 – 5" xmlns="http://www.w3.org/2000/svg" width="31.643" height="31.643" viewBox="0 0 31.643 31.643">
  <ellipse id="Ellipse_22" data-name="Ellipse 22" cx="15.821" cy="15.821" rx="15.821" ry="15.821" fill="#3ae2e8"/>
  <g id="_Icons_Update_reset" data-name="_Icons / Update, reset" transform="translate(6.328 5.425)">
    <path id="_29_Update_reset" data-name="29 Update, reset" d="M14.85,1.329a10.606,10.606,0,0,0-10.811.5L2.482.3A1.016,1.016,0,0,0,1.38.076,1,1,0,0,0,.755,1v5.6a1.006,1.006,0,0,0,1.01,1H7.408a1.011,1.011,0,0,0,.939-.618,1,1,0,0,0-.222-1.1L6.974,4.752a6.609,6.609,0,0,1,7.262,1,6.48,6.48,0,0,1,1.8,7.052,6.587,6.587,0,0,1-12.157.5,1.014,1.014,0,0,0-1.228-.5l-1.93.551a1.008,1.008,0,0,0-.619.525,1,1,0,0,0-.027.808A10.633,10.633,0,0,0,20.26,12.643,10.5,10.5,0,0,0,14.85,1.329Z" transform="translate(0 0)" fill="#f9f8f7"/>
  </g>
</svg>
