<svg id="Component_282_5" data-name="Component 282 – 5" xmlns="http://www.w3.org/2000/svg" width="31" height="32" viewBox="0 0 31 32">
  <ellipse id="Ellipse_23" data-name="Ellipse 23" cx="15.5" cy="16" rx="15.5" ry="16" fill="#f9f8f7"/>
  <g id="_Icons_12_Settings" data-name="_Icons / 12 Settings" transform="translate(3.852 4.05)" style="mix-blend-mode: darken;isolation: isolate">
    <path id="_12_Settings" data-name="12 Settings" d="M11.332,23.9a12.3,12.3,0,0,1-2.173-.194.992.992,0,0,1-.818-1v-.84a.993.993,0,0,0-.614-.915,9.6,9.6,0,0,1-2.4-1.393,1,1,0,0,0-1.107-.074l-.728.423a1,1,0,0,1-1.256-.219A11.678,11.678,0,0,1,1.1,18.129C1.023,18,.934,17.85.857,17.706a11.5,11.5,0,0,1-.8-1.776A1,1,0,0,1,.5,14.746l.724-.418a.99.99,0,0,0,.5-1,9.6,9.6,0,0,1,0-2.766.992.992,0,0,0-.5-1L.5,9.154A1,1,0,0,1,.054,7.971a11.4,11.4,0,0,1,.8-1.781c.081-.152.173-.306.245-.423A11.659,11.659,0,0,1,2.228,4.2,1,1,0,0,1,3.489,3.99l.733.418a1,1,0,0,0,1.107-.074,9.607,9.607,0,0,1,2.4-1.388A.989.989,0,0,0,8.36,2.03V1.189a.992.992,0,0,1,.818-1,12.279,12.279,0,0,1,4.348,0,.99.99,0,0,1,.817,1V2.03a.993.993,0,0,0,.614.915,9.627,9.627,0,0,1,2.383,1.388,1,1,0,0,0,1.107.074l.643-.368A1.033,1.033,0,0,1,20.44,4.2a11.549,11.549,0,0,1,1.107,1.562c.071.117.164.271.245.423a11.375,11.375,0,0,1,.8,1.776.992.992,0,0,1-.444,1.194l-.628.363a1.038,1.038,0,0,0-.584,1.05,9.6,9.6,0,0,1,0,2.766.99.99,0,0,0,.5,1l.729.418a1,1,0,0,1,.444,1.184,11.494,11.494,0,0,1-.793,1.786c-.069.127-.151.269-.245.422A11.656,11.656,0,0,1,20.44,19.7a1,1,0,0,1-1.266.213l-.728-.422a1,1,0,0,0-1.093.074,9.607,9.607,0,0,1-2.4,1.388.992.992,0,0,0-.633.915v.84a.992.992,0,0,1-.818,1A12.3,12.3,0,0,1,11.332,23.9Zm0-16.426a4.476,4.476,0,1,0,4.488,4.477A4.487,4.487,0,0,0,11.331,7.473Z" transform="translate(0 0)" fill="#024f82" stroke="#f9f8f7" stroke-width="1"/>
  </g>
</svg>
