<svg xmlns="http://www.w3.org/2000/svg" width="135.047" height="49.833" viewBox="0 0 135.047 49.833">
  <g id="Group_276" data-name="Group 276" transform="translate(-240.708 3)">
    <g id="Group_327" data-name="Group 327" transform="translate(-719.354 -135.251)">
      <path id="Path_63" data-name="Path 63" d="M1063.015,172.459a2.466,2.466,0,1,1-2.466,2.467A2.466,2.466,0,0,1,1063.015,172.459Z" fill="#4af3f8" fill-rule="evenodd"/>
      <path id="Path_64" data-name="Path 64" d="M1068.983,172.459a2.466,2.466,0,1,1-2.466,2.467A2.466,2.466,0,0,1,1068.983,172.459Z" fill="#4af3f8" fill-rule="evenodd"/>
      <path id="Path_65" data-name="Path 65" d="M968.295,164.912h15.374q4.684,0,4.682-4.9v-3.67h3.237v3.612c0,5.533-2.66,8.314-7.97,8.314H968.352q-4.033,0-6.1-2.067t-2.061-6.17V156.28h3.244v3.728c0,3.261,1.622,4.9,4.86,4.9ZM990,172.978h-1.3v3.263l1.342-.019c3.448-.049,6.091-.913,7.9-2.646s2.722-4.211,2.722-7.4v-9.967l-3.244.019v9.948a6.512,6.512,0,0,1-1.9,5.057A7.9,7.9,0,0,1,990,172.978Zm26.3-4.714a7.877,7.877,0,0,1-2.767,6.393c-1.841,1.536-4.516,2.309-8,2.309h-1.38V173.69h1.266a9.989,9.989,0,0,0,5.725-1.38,4.6,4.6,0,0,0,1.991-4.008v-.038h-3.015q-6.479,0-6.488-6.316a9.636,9.636,0,0,1,.407-2.869,6.763,6.763,0,0,1,1.2-2.277,5.36,5.36,0,0,1,2.035-1.507,7.005,7.005,0,0,1,2.825-.541,5.744,5.744,0,0,1,4.573,1.882,7.61,7.61,0,0,1,1.628,5.14v3.136h2.628c.311,0-.832.522-.832,1.546v.2c0,1.062,1.136,1.6.832,1.6Zm-9.56-6.393c0,2.023,1.12,3.041,3.359,3.041h3.053v-3.148a4.26,4.26,0,0,0-.827-2.838,2.882,2.882,0,0,0-2.3-.966,2.967,2.967,0,0,0-2.442,1.03,4.469,4.469,0,0,0-.84,2.881Zm12.022,3.041c-.312,0-.464.515-.464,1.546v.2c0,1.069.163,1.6.464,1.6h6.458a4.285,4.285,0,0,0,2.511-.617,4.669,4.669,0,0,0,2.025-1.915,5.225,5.225,0,0,0,2.086,1.915,18.256,18.256,0,0,0,5.025.617h.394c.281,0,.426-.539.426-1.6v-.2c0-1.026-.14-1.546-.426-1.546h-.413c-1.374,0-4.116-.306-4.707-.89a3.742,3.742,0,0,1-.9-2.748v-4.8h-3.186v4.8c0,1.234.075,2.151-.632,2.741s-.546.9-2.111.9Zm43.925,0c-.305,0-.464.515-.464,1.546v.2c0,1.069.159,1.6.464,1.6h4.491a10.023,10.023,0,0,0,3.823-.617,5.76,5.76,0,0,0,2.461-1.915,5.209,5.209,0,0,0,2.087,1.915,7.4,7.4,0,0,0,3.276.617h.394c.286,0,.426-.534.426-1.6v-.2c0-1.031-.14-1.546-.426-1.546h-.407a4.1,4.1,0,0,1-2.964-.89,3.7,3.7,0,0,1-.9-2.748v-4.8h-3.187v4.8a3.369,3.369,0,0,1-1.069,2.741,5.308,5.308,0,0,1-3.422.9Zm16.341,0h5.279a4.237,4.237,0,0,0,2.857-.8,3.607,3.607,0,0,0,.9-2.8v-5.477h3.244v5.5q0,6.936-6.991,6.933h-5.292c-.3,0-.464-.534-.464-1.6v-.2C1078.563,165.427,1078.722,164.912,1079.027,164.912Zm-41.977,0h11.515q4.656,0,4.656-2.5c0-.693-1.085-1.864-2.853-3l-2.284-1.465c-2.25-2.074,7.112-3.837,10.441-8.2l-7.507,6.377,7.088,5.894c1.932,1.606,3.092,2.888,4.326,2.888h.445c.286,0,.426.515.426,1.546v.2c0,1.069-.14,1.6-.426,1.6h-.28q-3.788,0-6.52-3.746l-.038-.058c-.846,2.538-3.357,3.8-7.512,3.8H1037.05" fill="#f9f8f7" stroke="#f9f8f7" stroke-miterlimit="22.926" stroke-width="0.257" fill-rule="evenodd"/>
      <path id="Path_66" data-name="Path 66" d="M1039.569,165.551a2.806,2.806,0,0,0,1.949,2.867,2.863,2.863,0,0,0,3.415-.809l27.181-30.188a3.031,3.031,0,0,0,.817-2.234,2.986,2.986,0,0,0-1.046-2.136,2.955,2.955,0,0,0-2.21-.795,3.017,3.017,0,0,0-2.137,1.045l-21.815,24.229,0-10.394a3.081,3.081,0,0,0-3.093-3.067,2.862,2.862,0,0,0-2.166.892,3.032,3.032,0,0,0-.907,2.194Z" fill="#4af3f8" fill-rule="evenodd"/>
      <path id="Path_67" data-name="Path 67" d="M1086.675,149.354a2.466,2.466,0,1,1-2.466,2.467A2.466,2.466,0,0,1,1086.675,149.354Z" fill="#4af3f8" fill-rule="evenodd"/>
      <path id="Path_68" data-name="Path 68" d="M1092.643,149.354a2.466,2.466,0,1,1-2.466,2.467A2.466,2.466,0,0,1,1092.643,149.354Z" fill="#4af3f8" fill-rule="evenodd"/>
      <path id="Path_69" data-name="Path 69" d="M1019.415,172.459a2.466,2.466,0,1,1-2.466,2.467A2.466,2.466,0,0,1,1019.415,172.459Z" fill="#4af3f8" fill-rule="evenodd"/>
      <path id="Path_70" data-name="Path 70" d="M1025.384,172.459a2.466,2.466,0,1,1-2.466,2.467A2.466,2.466,0,0,1,1025.384,172.459Z" fill="#4af3f8" fill-rule="evenodd"/>
      <path id="Path_71" data-name="Path 71" d="M973.337,149.354a2.466,2.466,0,1,1-2.467,2.467A2.466,2.466,0,0,1,973.337,149.354Z" fill="#4af3f8" fill-rule="evenodd"/>
      <path id="Path_72" data-name="Path 72" d="M979.3,149.354a2.466,2.466,0,1,1-2.466,2.467A2.466,2.466,0,0,1,979.3,149.354Z" fill="#4af3f8" fill-rule="evenodd"/>
      <path id="Path_73" data-name="Path 73" d="M1022.367,177.151a2.466,2.466,0,1,1-2.466,2.466A2.466,2.466,0,0,1,1022.367,177.151Z" fill="#4af3f8" fill-rule="evenodd"/>
      <rect id="Rectangle_380" data-name="Rectangle 380" width="1.323" height="3.272" transform="translate(1078.321 164.912)" fill="#f9f8f7" stroke="#f9f8f7" stroke-miterlimit="22.926" stroke-width="0.257"/>
      <rect id="Rectangle_381" data-name="Rectangle 381" width="1.323" height="3.272" transform="translate(1062.354 164.912)" fill="#f9f8f7" stroke="#f9f8f7" stroke-miterlimit="22.926" stroke-width="0.257"/>
      <rect id="Rectangle_382" data-name="Rectangle 382" width="1.323" height="3.272" transform="translate(1036.388 164.912)" fill="#f9f8f7" stroke="#f9f8f7" stroke-miterlimit="22.926" stroke-width="0.257"/>
    </g>
  </g>
</svg>
